<svg width="60" height="60" viewBox="0 0 60 60" fill="none" xmlns="http://www.w3.org/2000/svg">
<path d="M54.045 5.95494C50.1823 2.12446 45.0965 0 39.6566 0C34.2167 0 29.1308 2.12446 25.2682 5.95494C22.2746 8.9485 20.3111 12.7468 19.6029 16.8348C19.5386 17.2532 19.4742 17.6717 19.442 18.0901C19.4098 18.5086 19.3776 18.927 19.3454 19.3455C19.3132 19.6674 19.3132 20.0215 19.3132 20.3433V23.1116V24.367V25.6223V40.7189H34.4098H35.6652H36.9205C36.9527 40.3648 36.9527 40.0429 36.9527 39.6888V36.9528H35.6974H23.0793V25.5901V23.1116V20.3755C23.0793 20.0215 23.0793 19.6996 23.1115 19.3455C23.1437 18.927 23.1759 18.5086 23.2403 18.0901C23.3046 17.6717 23.369 17.2532 23.4656 16.8348C24.1416 13.6803 25.751 10.8476 27.9398 8.62661C30.9334 5.63305 35.0858 3.76609 39.6566 3.76609C48.7982 3.76609 56.2338 11.2017 56.2338 20.3433C56.2338 24.9142 54.3669 29.0665 51.3733 32.0601C49.1523 34.2811 46.3197 35.8584 43.1652 36.5343V36.8884V39.6567C43.1652 39.9142 43.1652 40.1395 43.1652 40.397C47.2531 39.6888 51.0514 37.7253 54.045 34.7318C57.8755 30.9013 59.9999 25.7833 59.9999 20.3433C59.9999 14.9034 57.8755 9.78541 54.045 5.95494Z" fill="#F7654A"/>
<path d="M23.0794 23.0794H24.3348H25.5901H36.9528V34.4421V35.6975V36.9528V39.6889C36.9528 40.043 36.9528 40.3649 36.9206 40.7189C36.8884 41.1374 36.8562 41.5558 36.7919 41.9743C36.7275 42.3928 36.6631 42.8112 36.5665 43.2297C35.8906 46.3842 34.2811 49.2168 32.0923 51.4378C29.0987 54.4314 24.9464 56.2983 20.3755 56.2983C11.2339 56.2983 3.79828 48.8627 3.79828 39.7211C3.79828 35.1503 5.66524 30.9979 8.6588 28.0043C10.8798 25.7833 13.7124 24.2061 16.867 23.5301V20.4078C16.867 20.1503 16.867 19.9249 16.867 19.6674C12.779 20.3756 8.98069 22.3391 5.98713 25.3327C2.12446 29.0988 0 34.2168 0 39.6567C0 45.0966 2.12446 50.1825 5.95494 54.0451C9.78541 57.8756 14.9034 60 20.3433 60C25.7833 60 30.8691 57.8756 34.7318 54.0451C38.3369 50.44 40.4292 45.7082 40.6545 40.6546C40.6545 40.4936 40.6545 40.3327 40.6867 40.1717C40.6867 40.0752 40.6867 40.0108 40.6867 39.9142C40.6867 39.8176 40.6867 39.7533 40.6867 39.6567V36.8885V19.3134H25.5901H24.3348H23.0794C23.0472 19.6674 23.0472 19.9893 23.0472 20.3434L23.0794 23.0794Z" fill="#F7654A"/>
</svg>
